<mxfile host="app.diagrams.net" modified="2023-05-27T16:37:15.532Z" agent="Mozilla/5.0 (Windows NT 10.0; Win64; x64) AppleWebKit/537.36 (KHTML, like Gecko) Chrome/112.0.0.0 Safari/537.36 OPR/98.0.0.0" etag="z4wUc0R6sW9TyJiIYhqc" version="21.3.4" type="device">
  <diagram name="Page-1" id="VKMU4g4UH0HTz8x48zFp">
    <mxGraphModel dx="696" dy="401" grid="0" gridSize="10" guides="1" tooltips="1" connect="1" arrows="1" fold="1" page="1" pageScale="1" pageWidth="827" pageHeight="1169" background="#ffffff" math="0" shadow="0">
      <root>
        <mxCell id="0" />
        <mxCell id="1" parent="0" />
        <mxCell id="JUZib6-nhp5S9tP7I-Et-2" value="" style="rounded=0;whiteSpace=wrap;html=1;fillColor=#f9f7ed;strokeColor=#36393d;" vertex="1" parent="1">
          <mxGeometry x="200" y="360" width="240" height="70" as="geometry" />
        </mxCell>
        <mxCell id="JUZib6-nhp5S9tP7I-Et-5" value="&lt;font size=&quot;1&quot; color=&quot;#000000&quot;&gt;&lt;b style=&quot;font-size: 17px;&quot;&gt;EN&lt;/b&gt;&lt;/font&gt;" style="text;html=1;strokeColor=none;fillColor=none;align=center;verticalAlign=middle;whiteSpace=wrap;rounded=0;" vertex="1" parent="1">
          <mxGeometry x="200" y="400" width="40" height="20" as="geometry" />
        </mxCell>
        <mxCell id="JUZib6-nhp5S9tP7I-Et-6" value="&lt;font size=&quot;1&quot; color=&quot;#000000&quot;&gt;&lt;b style=&quot;font-size: 17px;&quot;&gt;CLK&lt;/b&gt;&lt;/font&gt;" style="text;html=1;strokeColor=none;fillColor=none;align=center;verticalAlign=middle;whiteSpace=wrap;rounded=0;" vertex="1" parent="1">
          <mxGeometry x="200" y="360" width="50" height="40" as="geometry" />
        </mxCell>
        <mxCell id="JUZib6-nhp5S9tP7I-Et-10" value="" style="endArrow=classic;html=1;rounded=0;strokeColor=#000000;entryX=0;entryY=0.5;entryDx=0;entryDy=0;" edge="1" parent="1" target="JUZib6-nhp5S9tP7I-Et-6">
          <mxGeometry width="50" height="50" relative="1" as="geometry">
            <mxPoint x="140" y="380" as="sourcePoint" />
            <mxPoint x="380" y="460" as="targetPoint" />
          </mxGeometry>
        </mxCell>
        <mxCell id="JUZib6-nhp5S9tP7I-Et-12" value="" style="endArrow=classic;html=1;rounded=0;strokeColor=#000000;entryX=0;entryY=0.5;entryDx=0;entryDy=0;" edge="1" parent="1">
          <mxGeometry width="50" height="50" relative="1" as="geometry">
            <mxPoint x="140" y="409.5" as="sourcePoint" />
            <mxPoint x="200" y="409.5" as="targetPoint" />
          </mxGeometry>
        </mxCell>
        <mxCell id="JUZib6-nhp5S9tP7I-Et-13" value="&lt;font color=&quot;#000000&quot;&gt;&lt;span style=&quot;font-size: 16px;&quot;&gt;Numarator_etaje&lt;/span&gt;&lt;/font&gt;" style="text;html=1;strokeColor=none;fillColor=none;align=center;verticalAlign=middle;whiteSpace=wrap;rounded=0;" vertex="1" parent="1">
          <mxGeometry x="290" y="380" width="60" height="30" as="geometry" />
        </mxCell>
        <mxCell id="JUZib6-nhp5S9tP7I-Et-14" value="&lt;font color=&quot;#000000&quot;&gt;&lt;span style=&quot;font-size: 17px;&quot;&gt;&lt;b&gt;DIR&lt;/b&gt;&lt;/span&gt;&lt;/font&gt;" style="text;html=1;strokeColor=none;fillColor=none;align=center;verticalAlign=middle;whiteSpace=wrap;rounded=0;" vertex="1" parent="1">
          <mxGeometry x="389" y="360" width="50" height="40" as="geometry" />
        </mxCell>
        <mxCell id="JUZib6-nhp5S9tP7I-Et-15" value="&lt;font color=&quot;#000000&quot;&gt;&lt;span style=&quot;font-size: 17px;&quot;&gt;&lt;b&gt;ET_CURENT&lt;/b&gt;&lt;/span&gt;&lt;/font&gt;" style="text;html=1;strokeColor=none;fillColor=none;align=center;verticalAlign=middle;whiteSpace=wrap;rounded=0;" vertex="1" parent="1">
          <mxGeometry x="320" y="390" width="120" height="55" as="geometry" />
        </mxCell>
        <mxCell id="JUZib6-nhp5S9tP7I-Et-16" value="" style="endArrow=classic;startArrow=classic;html=1;rounded=0;strokeColor=#000000;" edge="1" parent="1">
          <mxGeometry width="50" height="50" relative="1" as="geometry">
            <mxPoint x="520" y="380" as="sourcePoint" />
            <mxPoint x="440" y="380" as="targetPoint" />
          </mxGeometry>
        </mxCell>
        <mxCell id="JUZib6-nhp5S9tP7I-Et-17" value="" style="endArrow=classic;html=1;rounded=0;strokeColor=#000000;" edge="1" parent="1">
          <mxGeometry width="50" height="50" relative="1" as="geometry">
            <mxPoint x="440" y="420" as="sourcePoint" />
            <mxPoint x="520" y="420" as="targetPoint" />
          </mxGeometry>
        </mxCell>
        <mxCell id="JUZib6-nhp5S9tP7I-Et-18" value="" style="endArrow=none;html=1;rounded=0;strokeColor=#000000;" edge="1" parent="1">
          <mxGeometry width="50" height="50" relative="1" as="geometry">
            <mxPoint x="467" y="413" as="sourcePoint" />
            <mxPoint x="487" y="428" as="targetPoint" />
          </mxGeometry>
        </mxCell>
        <mxCell id="JUZib6-nhp5S9tP7I-Et-19" value="&lt;font color=&quot;#000000&quot;&gt;&lt;b&gt;4&lt;/b&gt;&lt;br&gt;&lt;/font&gt;" style="text;html=1;strokeColor=none;fillColor=none;align=center;verticalAlign=middle;whiteSpace=wrap;rounded=0;" vertex="1" parent="1">
          <mxGeometry x="452" y="395" width="60" height="30" as="geometry" />
        </mxCell>
      </root>
    </mxGraphModel>
  </diagram>
</mxfile>
